<mxfile host="app.diagrams.net" agent="Mozilla/5.0 (Windows NT 10.0; Win64; x64) AppleWebKit/537.36 (KHTML, like Gecko) Chrome/131.0.0.0 Safari/537.36 Edg/131.0.0.0" version="25.0.1">
  <diagram name="Page-1" id="_CvPEF8Wc4YrngkKWAFf">
    <mxGraphModel dx="644" dy="725" grid="1" gridSize="10" guides="1" tooltips="1" connect="1" arrows="1" fold="1" page="1" pageScale="1" pageWidth="850" pageHeight="1100" math="0" shadow="0">
      <root>
        <mxCell id="0" />
        <mxCell id="1" parent="0" />
        <mxCell id="EWGcy8JBwBUBe34mCPyP-1" value="Server" style="rounded=0;whiteSpace=wrap;html=1;" vertex="1" parent="1">
          <mxGeometry x="290" y="150" width="120" height="60" as="geometry" />
        </mxCell>
        <mxCell id="EWGcy8JBwBUBe34mCPyP-5" style="edgeStyle=orthogonalEdgeStyle;rounded=0;orthogonalLoop=1;jettySize=auto;html=1;entryX=0.5;entryY=1;entryDx=0;entryDy=0;" edge="1" parent="1" source="EWGcy8JBwBUBe34mCPyP-2" target="EWGcy8JBwBUBe34mCPyP-1">
          <mxGeometry relative="1" as="geometry" />
        </mxCell>
        <mxCell id="EWGcy8JBwBUBe34mCPyP-7" style="edgeStyle=orthogonalEdgeStyle;rounded=0;orthogonalLoop=1;jettySize=auto;html=1;entryX=0.5;entryY=0;entryDx=0;entryDy=0;" edge="1" parent="1" source="EWGcy8JBwBUBe34mCPyP-2" target="EWGcy8JBwBUBe34mCPyP-6">
          <mxGeometry relative="1" as="geometry" />
        </mxCell>
        <mxCell id="EWGcy8JBwBUBe34mCPyP-2" value="Controller" style="rounded=0;whiteSpace=wrap;html=1;" vertex="1" parent="1">
          <mxGeometry x="290" y="280" width="120" height="60" as="geometry" />
        </mxCell>
        <mxCell id="EWGcy8JBwBUBe34mCPyP-6" value="Modbus system" style="rounded=0;whiteSpace=wrap;html=1;" vertex="1" parent="1">
          <mxGeometry x="290" y="390" width="120" height="60" as="geometry" />
        </mxCell>
        <mxCell id="EWGcy8JBwBUBe34mCPyP-8" value="" style="image;aspect=fixed;html=1;points=[];align=center;fontSize=12;image=img/lib/azure2/other/Defender_Meter.svg;" vertex="1" parent="1">
          <mxGeometry x="210" y="500" width="68" height="68" as="geometry" />
        </mxCell>
        <mxCell id="EWGcy8JBwBUBe34mCPyP-9" value="" style="image;aspect=fixed;html=1;points=[];align=center;fontSize=12;image=img/lib/azure2/other/Defender_Meter.svg;" vertex="1" parent="1">
          <mxGeometry x="316" y="500" width="68" height="68" as="geometry" />
        </mxCell>
        <mxCell id="EWGcy8JBwBUBe34mCPyP-10" value="" style="image;aspect=fixed;html=1;points=[];align=center;fontSize=12;image=img/lib/azure2/other/Defender_Meter.svg;" vertex="1" parent="1">
          <mxGeometry x="425" y="500" width="68" height="68" as="geometry" />
        </mxCell>
        <mxCell id="EWGcy8JBwBUBe34mCPyP-12" style="edgeStyle=orthogonalEdgeStyle;rounded=0;orthogonalLoop=1;jettySize=auto;html=1;entryX=0.506;entryY=0.021;entryDx=0;entryDy=0;entryPerimeter=0;" edge="1" parent="1" source="EWGcy8JBwBUBe34mCPyP-6" target="EWGcy8JBwBUBe34mCPyP-9">
          <mxGeometry relative="1" as="geometry" />
        </mxCell>
        <mxCell id="EWGcy8JBwBUBe34mCPyP-13" style="edgeStyle=orthogonalEdgeStyle;rounded=0;orthogonalLoop=1;jettySize=auto;html=1;entryX=0.503;entryY=0.032;entryDx=0;entryDy=0;entryPerimeter=0;" edge="1" parent="1" source="EWGcy8JBwBUBe34mCPyP-6" target="EWGcy8JBwBUBe34mCPyP-10">
          <mxGeometry relative="1" as="geometry" />
        </mxCell>
        <mxCell id="EWGcy8JBwBUBe34mCPyP-14" style="edgeStyle=orthogonalEdgeStyle;rounded=0;orthogonalLoop=1;jettySize=auto;html=1;entryX=0.441;entryY=0.056;entryDx=0;entryDy=0;entryPerimeter=0;" edge="1" parent="1" source="EWGcy8JBwBUBe34mCPyP-6" target="EWGcy8JBwBUBe34mCPyP-8">
          <mxGeometry relative="1" as="geometry" />
        </mxCell>
      </root>
    </mxGraphModel>
  </diagram>
</mxfile>
